<svg version="1.0" xmlns="http://www.w3.org/2000/svg"
 width="100%" height="auto" viewBox="0 0 1060.000000 201.000000"
 preserveAspectRatio="xMidYMid meet">

<g transform="translate(0.000000,201.000000) scale(0.100000,-0.100000)"
fill="#000000" stroke="none">
<path d="M0 1005 l0 -1005 5300 0 5300 0 0 1005 0 1005 -5300 0 -5300 0 0
-1005z m1928 714 c81 -18 213 -78 280 -128 76 -56 177 -170 223 -249 l29 -52
91 0 91 0 -6 -35 c-4 -22 -3 -35 4 -35 19 0 11 -59 -10 -70 -17 -9 -20 -21
-20 -90 0 -69 3 -81 20 -90 13 -7 20 -21 20 -40 0 -19 -7 -33 -20 -40 -17 -9
-20 -21 -20 -91 0 -72 2 -81 20 -86 13 -3 20 -14 20 -29 0 -23 -3 -24 -67 -25
-38 -1 -77 -1 -88 0 -27 2 -34 -5 -80 -69 -146 -205 -286 -298 -516 -345 -96
-20 -242 -15 -331 11 -198 58 -395 213 -469 369 l-14 30 -103 3 c-93 2 -102 4
-102 22 0 11 9 24 20 30 18 9 20 21 20 95 0 75 -2 84 -20 90 -15 5 -20 15 -20
40 0 24 5 34 20 38 18 5 20 14 20 92 0 78 -2 87 -20 92 -25 7 -29 63 -5 63 18
0 20 21 4 37 -23 23 3 33 86 33 l83 0 46 75 c78 124 194 228 333 298 43 22 97
39 228 71 28 6 202 -3 253 -15z m6430 -332 c29 -23 42 -65 31 -94 -18 -47 -39
-63 -83 -63 -44 1 -66 13 -84 47 -17 32 -15 57 9 87 36 45 89 55 127 23z
m-4143 -12 c69 -68 -9 -179 -99 -141 -37 16 -62 62 -52 101 16 65 104 88 151
40z m-464 -1 c30 -9 75 -29 100 -45 45 -28 109 -98 109 -118 0 -11 -104 -81
-120 -81 -5 0 -19 14 -32 30 -12 17 -44 41 -72 55 -129 64 -296 3 -362 -132
-24 -48 -28 -69 -28 -137 1 -96 16 -137 75 -201 54 -58 107 -86 178 -92 83 -8
135 10 196 68 l52 49 61 -36 c34 -21 62 -42 62 -48 0 -5 -28 -38 -63 -72 -46
-44 -79 -67 -122 -83 -168 -63 -361 -22 -483 102 -64 65 -100 137 -120 239
-13 67 -13 90 -3 146 17 91 65 187 121 243 50 50 144 103 208 118 61 15 184
12 243 -5z m4389 -9 c6 -7 10 -39 8 -72 l-3 -58 -125 -5 -125 -5 -5 -350 -5
-350 -77 -3 -78 -3 -2 353 -3 353 -125 5 -125 5 -3 58 c-2 35 2 64 9 73 17 21
642 20 659 -1z m1198 -237 c1 -137 6 -248 10 -248 4 0 57 56 117 124 61 69
119 128 130 131 11 3 53 2 93 -2 l72 -8 -115 -128 -116 -128 28 -38 c16 -21
70 -93 121 -160 51 -67 96 -129 99 -136 4 -13 -10 -15 -85 -15 l-91 0 -22 33
c-62 89 -152 207 -158 207 -4 0 -23 -17 -44 -37 -35 -37 -36 -41 -39 -118 l-3
-80 -75 0 -75 0 0 420 0 420 35 6 c19 4 53 6 75 5 l40 -1 3 -247z m-4481 -4
c41 -20 57 -35 75 -72 22 -45 23 -56 23 -287 l0 -240 -72 -3 -71 -3 -4 213
c-3 231 -7 247 -60 269 -47 19 -123 6 -166 -28 l-37 -30 -5 -209 -5 -209 -70
0 -70 0 -3 303 -2 303 72 -3 73 -3 3 -32 c3 -33 15 -42 27 -23 11 17 80 58
116 69 62 17 122 13 176 -15z m648 5 c64 -24 116 -66 151 -121 30 -47 56 -155
48 -197 l-6 -31 -229 0 c-134 0 -230 -4 -234 -10 -10 -16 21 -75 53 -102 67
-56 162 -62 251 -15 l50 26 37 -42 37 -41 -31 -26 c-81 -68 -262 -88 -370 -40
-65 28 -157 124 -171 178 -32 125 -21 210 41 302 80 121 236 170 373 119z
m730 10 c23 -7 55 -27 76 -49 l35 -37 34 29 c133 111 322 78 360 -63 6 -22 9
-132 8 -266 l-3 -228 -72 -3 -73 -3 0 188 c0 103 -5 206 -10 228 -18 79 -98
99 -183 45 -26 -16 -48 -35 -49 -42 -4 -30 -5 -72 -6 -240 l-2 -178 -70 0
c-49 0 -70 4 -71 13 0 6 -3 100 -5 207 -2 107 -6 205 -9 217 -3 13 -19 29 -35
38 -55 29 -119 15 -167 -37 -22 -23 -23 -33 -25 -228 l-3 -205 -70 0 -70 0 -3
303 -2 303 72 -3 c71 -3 73 -4 76 -30 2 -16 5 -28 7 -28 2 0 23 13 47 29 71
48 138 61 213 40z m1073 -22 c31 -15 58 -39 79 -70 37 -55 43 -114 40 -367
l-2 -155 -72 -3 c-72 -3 -73 -3 -73 23 0 25 -23 35 -35 15 -13 -20 -85 -50
-137 -56 -74 -9 -131 9 -183 57 -53 49 -69 93 -62 167 7 69 43 124 100 154 61
32 194 32 254 0 23 -12 45 -22 48 -22 3 0 5 20 5 45 0 35 -6 52 -29 77 -28 32
-33 33 -103 33 -70 0 -137 -20 -153 -45 -13 -21 -35 -8 -59 32 l-25 43 22 23
c74 79 273 105 385 49z m1669 0 c26 -14 59 -37 73 -51 l24 -27 -45 -45 -46
-46 -45 32 c-35 25 -54 31 -96 32 -109 0 -177 -72 -176 -187 0 -71 19 -113 71
-152 32 -24 45 -28 104 -28 60 0 71 3 106 31 l39 31 49 -43 50 -43 -28 -29
c-153 -159 -457 -97 -533 110 -10 25 -17 76 -17 124 -1 68 3 89 26 135 47 96
125 158 227 180 62 14 164 2 217 -24z m-4749 -289 l-3 -303 -75 0 -75 0 -3
280 c-1 154 0 290 3 303 5 20 11 22 80 22 l75 0 -2 -302z m4152 -3 l0 -306
-72 3 -73 3 -3 303 -2 302 75 0 75 0 0 -305z"/>
<path d="M1655 1665 c-143 -26 -265 -85 -356 -172 -52 -49 -99 -117 -89 -127
3 -2 39 -7 80 -11 l75 -7 50 42 c63 52 120 82 211 109 88 26 169 27 267 2 95
-25 143 -49 208 -107 l51 -45 82 7 c44 3 84 9 89 11 14 8 -27 63 -94 129 -88
84 -215 147 -344 169 -105 18 -136 18 -230 0z"/>
<path d="M1606 1308 c-11 -19 -14 -87 -16 -345 l-1 -323 25 -25 c14 -14 31
-25 39 -25 7 0 51 22 96 50 45 28 85 50 88 50 3 0 58 31 122 68 64 38 141 83
172 100 71 40 91 63 87 98 -3 32 -23 47 -208 160 -69 42 -146 90 -173 107 -90
60 -176 107 -196 107 -11 0 -27 -10 -35 -22z"/>
<path d="M1932 1314 c-31 -22 -29 -67 4 -93 50 -40 104 -16 104 46 0 55 -59
81 -108 47z"/>
<path d="M1015 1227 c-3 -7 -4 -125 -3 -262 l3 -250 69 -3 68 -3 -5 28 c-2 15
-13 59 -22 96 -16 58 -16 74 -6 103 10 27 10 38 1 49 -16 20 -4 105 25 179 13
33 22 63 19 68 -9 14 -144 10 -149 -5z"/>
<path d="M2378 1235 c-3 -3 3 -29 12 -58 26 -78 33 -153 19 -192 -10 -27 -10
-37 0 -49 14 -17 7 -86 -15 -150 -25 -71 -22 -76 50 -76 49 0 65 4 70 16 3 9
6 128 6 265 l0 249 -68 0 c-38 0 -71 -2 -74 -5z"/>
<path d="M1442 1153 c-31 -28 -35 -56 -11 -86 35 -46 105 -31 109 23 3 39 1
47 -16 64 -20 21 -57 20 -82 -1z"/>
<path d="M1437 932 c-19 -21 -22 -54 -7 -83 16 -28 84 -27 104 3 21 30 20 54
-4 78 -25 25 -72 26 -93 2z"/>
<path d="M1938 716 c-18 -13 -24 -61 -10 -83 24 -37 96 -31 111 9 22 61 -50
113 -101 74z"/>
<path d="M1215 619 c-24 -37 82 -161 196 -229 133 -81 342 -114 504 -81 136
28 316 142 398 253 44 58 34 68 -72 68 -83 0 -90 -1 -105 -25 -21 -32 -125
-99 -196 -127 -37 -14 -86 -23 -150 -26 -87 -4 -103 -1 -194 29 -87 29 -106
39 -161 91 l-63 58 -75 0 c-43 0 -79 -5 -82 -11z"/>
<path d="M5336 1020 c-35 -11 -73 -45 -93 -83 -27 -54 -19 -57 153 -57 l157 0
-6 37 c-14 83 -113 132 -211 103z"/>
<path d="M7080 793 c-28 -10 -59 -45 -65 -74 -20 -89 110 -143 210 -86 34 19
41 29 45 63 8 55 5 61 -41 84 -37 19 -114 26 -149 13z"/>
</g>
</svg>
