<svg xmlns="http://www.w3.org/2000/svg" width="100%" height="auto" viewBox="0 0 1024 709" version="1.1">
	<path d="M 480.500 55.016 C 475 55.500, 467.800 56.356, 464.500 56.916 C 461.200 57.477, 456.025 58.227, 453 58.583 C 449.975 58.939, 446.688 59.657, 445.696 60.179 C 444.703 60.702, 441.103 61.567, 437.696 62.103 C 434.288 62.639, 429.700 63.707, 427.500 64.476 C 425.300 65.246, 420.125 66.867, 416 68.080 C 405.349 71.211, 394.189 75.777, 374.434 85.084 C 372.198 86.138, 370.054 87, 369.669 87 C 369.284 87, 366.614 88.510, 363.735 90.356 C 358.563 93.672, 352.239 97.663, 342.500 103.756 C 326.980 113.466, 314.245 123.946, 297 141.200 C 279.803 158.406, 274.181 164.487, 269 171.486 C 267.075 174.086, 264.479 177.320, 263.230 178.672 C 261.982 180.024, 260.191 182.338, 259.250 183.815 C 258.309 185.292, 255.281 189.650, 252.520 193.500 C 249.759 197.350, 246.150 203.122, 244.500 206.327 C 242.850 209.532, 240.527 214.032, 239.338 216.327 C 238.149 218.622, 235.836 222.075, 234.198 224 L 231.221 227.500 197.866 227.830 C 177.579 228.031, 164.038 228.553, 163.304 229.162 C 161.130 230.967, 160.714 238.166, 162.504 243.010 C 163.417 245.480, 164.398 248.478, 164.684 249.673 C 165.386 252.607, 162.613 257.028, 158.294 259.859 L 154.742 262.188 155.219 272.097 C 155.767 283.478, 157.104 286, 162.590 286 C 167.545 286, 170.735 287.588, 172.452 290.907 C 173.736 293.389, 174 298.449, 174 320.527 L 174 347.154 171.106 350.048 C 169.246 351.908, 166.689 353.186, 163.953 353.623 C 156.682 354.786, 156 356.195, 156 370.050 C 156 385.447, 157.055 388, 163.415 388 C 166.220 388, 168.622 388.682, 170.139 389.911 L 172.500 391.821 172.500 424.146 L 172.500 456.471 169.632 457.846 C 168.055 458.603, 165.018 459.456, 162.883 459.743 C 159.447 460.203, 158.881 460.679, 157.949 463.882 C 157.288 466.153, 157.194 470.105, 157.698 474.500 L 158.500 481.500 195.500 482 C 236.146 482.549, 237.458 482.744, 239.325 488.500 C 239.861 490.150, 241.131 492.573, 242.149 493.885 C 243.167 495.197, 244 496.902, 244 497.675 C 244 498.926, 247.536 504.697, 249.100 506 C 249.430 506.275, 250.284 507.605, 250.996 508.957 C 252.804 512.385, 270.189 535.188, 276.837 542.851 C 284.258 551.406, 294.044 561.231, 302.383 568.500 C 306.168 571.800, 310.218 575.468, 311.383 576.651 C 314.071 579.381, 337.681 596.866, 342.142 599.430 C 343.989 600.491, 349.100 603.456, 353.500 606.018 C 365.471 612.989, 379.463 620.234, 389 624.401 C 393.675 626.443, 398.694 628.764, 400.154 629.557 C 401.614 630.351, 403.774 631, 404.954 631 C 406.134 631, 408.355 631.649, 409.890 632.443 C 411.425 633.237, 415.340 634.564, 418.590 635.392 C 428.470 637.909, 436.245 639.973, 441.500 641.474 C 455.342 645.428, 465.968 646.377, 500.209 646.717 C 530.985 647.022, 534.762 646.875, 543.618 645.026 C 548.953 643.912, 554.379 643, 555.675 643 C 556.972 643, 563.313 641.656, 569.766 640.013 C 576.220 638.371, 583.525 636.522, 586 635.906 C 588.475 635.290, 591.850 634.196, 593.500 633.476 C 595.150 632.756, 597.850 631.878, 599.500 631.526 C 602.586 630.866, 613.181 626.950, 618.500 624.503 C 631.871 618.350, 647.767 610.767, 649 609.952 C 649.825 609.406, 651.869 608.327, 653.542 607.553 C 656.850 606.024, 673.478 594.938, 681.500 588.913 C 694.325 579.281, 701.545 573.653, 702.480 572.560 C 703.041 571.904, 707.754 567.348, 712.954 562.434 C 725.680 550.409, 737.577 537.583, 741.648 531.500 C 743.488 528.750, 746.458 524.429, 748.247 521.898 C 753.488 514.483, 759.176 505.831, 764 497.934 C 766.475 493.882, 770.135 488.865, 772.132 486.784 L 775.765 483 787.632 482.988 C 812.388 482.962, 850.537 481.722, 851.413 480.915 C 852.776 479.659, 853.345 464.905, 852.148 461.829 C 851.253 459.527, 850.347 459.062, 845.595 458.469 C 835.903 457.258, 836.476 459.376, 836.672 425.456 C 836.766 409.123, 837.110 394.697, 837.436 393.398 C 838.071 390.868, 842.594 388, 845.950 388 C 847.078 388, 848.900 387.100, 850 386 C 851.821 384.179, 852 382.667, 852 369.061 L 852 354.123 847.250 353.532 C 838.640 352.462, 837.598 351.858, 836.821 347.481 C 835.902 342.299, 835.831 323.233, 836.659 304.103 L 837.317 288.887 840.109 287.444 C 841.644 286.650, 844.428 286, 846.295 286 C 851.767 286, 852.978 283.737, 853.681 272.197 C 854.383 260.680, 853.496 257.380, 849.015 254.817 C 845.333 252.712, 844.353 249.152, 846.378 245.237 C 848.627 240.887, 849.681 229.198, 847.886 228.514 C 847.124 228.223, 831.425 227.876, 813 227.743 C 787.885 227.561, 778.936 227.178, 777.245 226.212 C 776.005 225.504, 773.627 222.354, 771.959 219.212 C 767.801 211.377, 760.409 199.560, 748.917 182.381 C 748.138 181.216, 742.257 173.791, 735.849 165.881 C 721.618 148.314, 708.757 135.626, 686.046 116.748 C 683.234 114.412, 662.588 100.516, 651.500 93.498 C 646.141 90.107, 631.838 83.123, 628.951 82.489 C 627.404 82.149, 625.602 81.225, 624.947 80.436 C 624.291 79.646, 623.010 79, 622.100 79 C 621.190 79, 619.405 78.272, 618.135 77.382 C 616.864 76.492, 613.276 74.956, 610.162 73.969 C 607.048 72.983, 602.025 71.198, 599 70.003 C 591.063 66.867, 568.824 60.956, 557.500 58.971 C 535.307 55.081, 500.219 53.279, 480.500 55.016 M 489 83.025 C 475.989 84.066, 455.795 86.724, 453 87.763 C 451.625 88.274, 446.900 89.278, 442.500 89.993 C 438.100 90.708, 434.050 91.637, 433.500 92.057 C 432.950 92.477, 430.700 93.154, 428.500 93.561 C 426.300 93.969, 423.600 94.876, 422.500 95.577 C 421.400 96.278, 418.700 97.160, 416.500 97.537 C 414.300 97.914, 410.700 99.031, 408.500 100.018 C 406.300 101.006, 402.025 102.798, 399 104.001 C 389.665 107.712, 368.437 119.500, 362.500 124.270 C 361.950 124.711, 358.575 126.938, 355 129.218 C 349.290 132.860, 339.016 140.445, 334.151 144.612 C 333.243 145.390, 329.350 148.659, 325.500 151.877 C 319.481 156.907, 313.781 162.665, 300.132 177.500 C 291.763 186.596, 288.676 194.495, 291.950 198.439 C 294.085 201.013, 302.406 201.938, 327.500 202.394 C 356.891 202.927, 354.496 203.656, 368 190.059 C 375.282 182.726, 385.415 175.131, 399.500 166.449 C 411.266 159.196, 431.231 150.693, 445.146 147.007 C 448.802 146.039, 452.283 144.943, 452.882 144.573 C 453.481 144.203, 456.340 143.493, 459.236 142.995 C 462.131 142.498, 468.325 141.375, 473 140.500 C 479.307 139.320, 487.822 138.910, 506 138.912 C 531.743 138.915, 535.503 139.380, 560 145.587 C 573.911 149.112, 598.694 159.378, 608 165.470 C 609.925 166.731, 614.662 169.790, 618.527 172.270 C 625.956 177.036, 635.518 185.276, 645.591 195.592 C 653.302 203.489, 653.649 203.546, 685.832 202.285 C 712.850 201.225, 717.159 200.342, 719.005 195.486 C 720.291 192.105, 719.658 191.018, 708.500 177.451 C 697.236 163.756, 686.495 152.965, 677.692 146.500 C 673.947 143.750, 668.901 139.925, 666.479 138 C 664.056 136.075, 661.045 133.694, 659.787 132.710 C 648.511 123.883, 609.486 102, 605.020 102 C 604.402 102, 602.232 101.123, 600.198 100.052 C 598.164 98.981, 592.450 96.914, 587.500 95.459 C 582.550 94.005, 576.475 92.201, 574 91.451 C 571.525 90.700, 567.700 89.783, 565.500 89.411 C 563.300 89.040, 560.778 88.365, 559.895 87.911 C 558.315 87.097, 540.665 84.683, 524 83 C 514.324 82.023, 501.405 82.032, 489 83.025 M 449.200 219.964 C 447.015 221.333, 444.909 224.128, 442.966 228.236 L 440.031 234.441 440.414 359.718 C 440.778 478.564, 440.892 485.260, 442.649 490.167 C 446.137 499.915, 457.016 505.688, 466.885 503.031 C 470.395 502.086, 490.367 490.568, 501.397 483.128 C 506.665 479.575, 505.371 480.339, 524.812 469.316 C 547.803 456.280, 548.746 455.720, 561.500 447.506 C 574.503 439.132, 575.089 438.787, 585 433.675 C 590.225 430.980, 596.075 427.754, 598 426.506 C 600.942 424.599, 609.736 419.109, 621 412.148 C 622.375 411.299, 625.750 409.397, 628.500 407.922 C 631.250 406.448, 635.750 403.871, 638.500 402.196 C 641.250 400.521, 647.044 397.295, 651.376 395.027 C 661.860 389.538, 669.531 384.189, 675 378.552 L 679.500 373.915 679.500 365.023 C 679.500 356.520, 679.369 355.992, 676.500 352.936 C 673.653 349.904, 665.973 344.285, 660.165 340.986 C 658.699 340.153, 654.978 337.790, 651.896 335.736 C 648.815 333.681, 646.044 332, 645.739 332 C 645.165 332, 632.261 323.761, 630.500 322.270 C 629.488 321.413, 618.733 314.793, 613.836 312.013 C 608.922 309.223, 603.533 305.954, 599.335 303.216 C 593.617 299.487, 578.179 289.393, 570.330 284.250 C 566.762 281.913, 563.635 280, 563.381 280 C 563.127 280, 561.700 279.170, 560.210 278.156 C 558.719 277.142, 555.700 275.192, 553.500 273.821 C 551.300 272.451, 544.325 267.930, 538 263.775 C 531.675 259.620, 524.025 254.795, 521 253.053 C 513.877 248.950, 508.560 245.607, 491.500 234.504 C 465.644 217.678, 467.359 218.552, 459.536 218.207 C 453.797 217.953, 451.892 218.277, 449.200 219.964 M 579.403 219.069 C 574.086 220.630, 567.401 227.350, 566.125 232.418 C 563.498 242.851, 565.165 250.785, 571.236 256.736 C 578.377 263.738, 587.726 265.776, 595.500 262.027 C 602.608 258.598, 605.594 255.113, 607.947 247.500 C 610.318 239.826, 610.117 236.354, 606.906 229.524 C 603.220 221.683, 588.962 216.263, 579.403 219.069 M 227.768 251.780 C 216.849 252.044, 215.949 252.217, 214.768 254.282 C 213.773 256.023, 213.445 277.480, 213.244 354.090 C 212.989 451.590, 212.990 451.681, 215.053 453.548 C 216.907 455.226, 219.359 455.456, 239.094 455.801 C 255.359 456.086, 261.452 455.870, 262.535 454.971 C 264.568 453.283, 264.364 449.150, 262.033 444.801 C 260.110 441.212, 257.350 433.061, 252.958 418 C 251.755 413.875, 250.171 408.700, 249.438 406.500 C 247.789 401.551, 245.998 388.600, 246.006 381.678 C 246.014 373.783, 247.513 369.946, 252.988 363.803 C 255.745 360.710, 258 357.590, 258 356.869 C 258 356.148, 255.434 352.965, 252.298 349.796 C 246.742 344.181, 246.588 343.875, 246.231 337.767 C 245.360 322.849, 252.703 289.770, 260.941 271.500 C 267.253 257.503, 268.119 254.810, 266.928 252.884 C 266.041 251.448, 254.753 251.130, 227.768 251.780 M 743.948 252.450 C 742.376 254.026, 742.869 257.839, 745.353 263.314 C 747.569 268.196, 752.418 282.353, 756.892 297 C 759.937 306.971, 762.211 320.456, 762.709 331.500 L 763.159 341.500 757.580 347.657 C 750.273 355.720, 750.261 357.521, 757.458 365.772 C 760.944 369.770, 763.157 373.322, 763.586 375.607 C 764.428 380.096, 763.387 390.652, 761.603 395.707 C 760.859 397.818, 759.912 402.460, 759.501 406.023 C 759.089 409.585, 758.303 413.625, 757.754 415 C 757.205 416.375, 756.177 420.200, 755.468 423.500 C 753.996 430.364, 749.651 442.233, 747.473 445.342 C 746.663 446.498, 746.007 448.582, 746.015 449.973 C 746.048 455.318, 746.530 455.462, 766.211 456 C 785.542 456.528, 792.704 455.830, 794.750 453.215 C 795.730 451.962, 796 430.648, 796 354.365 L 796 257.112 793.750 254.576 L 791.500 252.040 768.198 251.770 C 754.423 251.610, 744.508 251.888, 743.948 252.450 M 382.929 283.976 C 378.688 286.218, 377.781 287.233, 374.498 293.408 C 367.408 306.741, 375.451 322.876, 390.772 326.056 C 397.813 327.518, 402.689 326.208, 408.777 321.220 C 414.708 316.360, 417 311.557, 417 303.990 C 417 294.981, 412.761 288.008, 404.790 283.908 C 399.710 281.295, 387.931 281.332, 382.929 283.976 M 388.994 365.934 C 381.558 368.196, 377.373 371.924, 374.108 379.195 C 370.821 386.516, 371.220 393.631, 375.250 399.536 C 377.038 402.155, 380.445 405.685, 382.823 407.380 C 386.852 410.254, 387.690 410.453, 395.156 410.310 C 402.171 410.175, 403.671 409.807, 407.223 407.345 C 413.943 402.688, 416.442 397.917, 416.849 388.966 C 417.113 383.168, 416.783 380.480, 415.501 378.001 C 413.246 373.641, 407.204 368.204, 403.777 367.451 C 402.262 367.118, 400.766 366.431, 400.452 365.923 C 399.780 364.836, 392.583 364.843, 388.994 365.934 M 578.876 453.517 C 572.991 455.388, 567.771 461.520, 566.121 468.500 C 562.592 483.427, 573.236 496.918, 588.587 496.977 C 594.094 496.998, 595.199 496.624, 600.177 493.060 C 605.105 489.531, 605.905 488.433, 607.840 482.539 C 610.397 474.748, 610.467 472.925, 608.431 467.078 C 605.082 457.459, 600.027 453.493, 590 452.616 C 585.610 452.232, 581.999 452.524, 578.876 453.517 M 300.173 492.905 C 293.879 495.079, 287 501.277, 287 504.775 C 287 508.929, 293.501 518.841, 302.500 528.408 C 304.700 530.747, 307.431 533.750, 308.570 535.080 C 309.708 536.411, 313.931 540.425, 317.953 544 C 321.976 547.575, 326.420 551.533, 327.829 552.796 C 336.489 560.557, 349.740 571, 350.927 571 C 351.304 571, 355.187 573.730, 359.556 577.068 C 366.789 582.592, 395.223 597.587, 402 599.450 C 403.375 599.828, 405.850 600.733, 407.500 601.462 C 416.498 605.436, 432.800 610.566, 439.500 611.534 C 442.250 611.931, 445.373 612.710, 446.440 613.264 C 448.224 614.193, 456.262 615.719, 471.500 618.022 C 480.730 619.418, 525.539 619.486, 532.038 618.115 C 535.084 617.472, 542.959 616.108, 549.538 615.083 C 556.117 614.058, 564.425 612.521, 568 611.667 C 575.877 609.787, 599.146 602.494, 601.678 601.112 C 604.222 599.725, 626.745 590, 627.416 590 C 629.342 590, 661.978 568.571, 671.500 561.055 C 680.943 553.600, 700.328 534.680, 710.561 522.930 C 720.586 511.419, 722.817 505.928, 719.366 501.262 C 715.645 496.231, 709.705 493.805, 697.601 492.370 C 687.647 491.190, 666.634 491.295, 660.353 492.556 C 659.172 492.793, 650.847 500.247, 641.853 509.121 C 632.859 517.995, 623.025 526.916, 620 528.946 C 610.806 535.115, 591.183 546, 589.257 546 C 588.260 546, 586.410 546.725, 585.145 547.611 C 583.880 548.497, 580.742 549.826, 578.173 550.565 C 572.064 552.321, 564.061 555.278, 561.316 556.794 C 560.114 557.457, 558.284 558, 557.248 558 C 556.212 558, 552.020 558.896, 547.932 559.992 C 535.505 563.322, 504.522 564.637, 483.222 562.738 C 473.719 561.891, 465.394 560.765, 464.722 560.235 C 464.050 559.706, 461.475 558.964, 459 558.586 C 453.087 557.684, 430.481 550.539, 425.493 547.996 C 423.339 546.898, 420.799 546, 419.848 546 C 418.896 546, 417.883 545.620, 417.596 545.156 C 416.965 544.134, 404.667 538, 403.250 538 C 402.697 538, 401.657 537.292, 400.939 536.427 C 400.221 535.562, 397.993 534.017, 395.987 532.993 C 389.597 529.733, 370.838 514.157, 360.500 503.526 C 355 497.871, 349.517 492.739, 348.316 492.122 C 346.906 491.398, 338.929 491.012, 325.816 491.033 C 308.745 491.060, 304.649 491.359, 300.173 492.905" stroke="none" fill="black" fill-rule="evenodd"/>
</svg>