<svg xmlns="http://www.w3.org/2000/svg" width="100%" height="auto" viewBox="0 0 1024 216" version="1.1">
	<path d="M 104.500 32.588 C 89.773 35.851, 75.994 43.935, 64.886 55.830 C 61.048 59.939, 56.727 65.371, 55.285 67.901 C 50.687 75.963, 50.623 76, 41.404 76 C 32.945 76, 30.840 76.898, 33.052 79.563 C 34.032 80.744, 33.950 81.398, 32.638 82.847 C 30.487 85.225, 30.547 88.895, 32.750 89.708 C 35.514 90.728, 35.968 92.058, 35.985 99.179 C 35.999 105.632, 34.609 109, 31.929 109 C 31.418 109, 31 110.523, 31 112.383 C 31 114.926, 31.497 115.897, 33 116.290 C 34.823 116.766, 35 117.654, 35 126.290 C 35 134.926, 34.823 135.813, 33 136.290 C 31.900 136.577, 31 137.530, 31 138.406 C 31 139.690, 32.312 140.033, 37.750 140.171 C 41.462 140.265, 45.175 140.442, 46 140.565 C 46.825 140.687, 48.503 140.835, 49.730 140.894 C 51.240 140.966, 52.585 142.210, 53.899 144.750 C 56.843 150.443, 66.926 162.164, 68.201 161.376 C 68.828 160.988, 69.030 161.143, 68.665 161.732 C 67.795 163.141, 76.818 169.943, 86 174.801 C 97.819 181.053, 106.557 183.260, 119.500 183.262 C 147.732 183.267, 171.539 170.444, 186.551 147.145 L 190.500 141.017 200.750 141.009 C 210.880 141, 211 140.972, 211 138.617 C 211 137.074, 210.294 136.049, 209 135.710 C 207.183 135.235, 207 134.346, 207 126 C 207 117.654, 207.183 116.765, 209 116.290 C 210.567 115.880, 211 114.926, 211 111.883 C 211 108.667, 210.657 108, 209 108 C 207.148 108, 207 107.333, 207 99 C 207 90.667, 207.148 90, 209 90 C 210.613 90, 211 89.333, 211 86.559 C 211 84.666, 210.524 82.824, 209.941 82.464 C 209.334 82.089, 209.155 80.571, 209.521 78.905 L 210.159 76 201.144 76 L 192.128 76 186.344 67.397 C 175.655 51.497, 159.876 39.398, 142.500 33.777 C 134.193 31.089, 114.101 30.461, 104.500 32.588 M 116.500 36.612 C 96.787 38.405, 78.717 47.593, 67.809 61.369 C 62.622 67.921, 63.561 69, 74.448 69 C 81.922 69, 82.862 68.776, 85.018 66.481 C 88.813 62.441, 96.144 58.177, 104.033 55.421 C 113.484 52.119, 126.722 51.939, 136.913 54.974 C 144.329 57.183, 155.223 63.679, 156.964 66.932 C 157.954 68.783, 158.997 69, 166.913 69 C 173.601 69, 176.062 68.630, 177.016 67.481 C 178.389 65.826, 178.117 65.379, 171.033 57.642 C 158.064 43.480, 135.724 34.865, 116.500 36.612 M 356.923 66.923 C 349.152 74.695, 358.866 86.685, 367.841 80.399 C 374.935 75.430, 370.845 64, 361.973 64 C 360.803 64, 358.531 65.315, 356.923 66.923 M 819.888 65.500 C 814.464 68.448, 813.857 76.169, 818.747 80.016 C 827.834 87.164, 838.766 74.030, 829.923 66.589 C 826.484 63.695, 823.754 63.399, 819.888 65.500 M 297.618 67.050 C 295.482 67.586, 291.007 69.478, 287.671 71.256 C 261.477 85.217, 256.125 121.679, 277.170 142.798 C 294.091 159.779, 322.453 160.261, 338.867 143.848 C 341.690 141.024, 343.983 138.216, 343.962 137.607 C 343.941 136.998, 341.416 134.797, 338.351 132.717 L 332.779 128.933 327.993 133.410 C 321.781 139.220, 317.331 141.005, 309.128 140.978 C 294.757 140.930, 283.404 131.103, 281.250 116.847 C 277.709 93.411, 295.942 75.739, 317.303 81.903 C 320.238 82.750, 323.990 84.984, 326.950 87.645 C 329.614 90.040, 332.072 92, 332.412 92 C 333.656 92, 344 84.690, 344 83.811 C 344 81.528, 333.446 72.636, 327.353 69.784 C 321.636 67.109, 319.401 66.641, 311.112 66.380 C 305.825 66.213, 299.753 66.515, 297.618 67.050 M 743.198 67.849 C 742.295 68.427, 741.989 70.643, 742.198 75.091 L 742.500 81.500 754.817 82 L 767.134 82.500 767.567 117 C 767.805 135.975, 767.999 152.063, 768 152.750 C 768 153.639, 770.167 154, 775.500 154 L 783 154 783 118 L 783 82 796.044 82 L 809.088 82 808.794 74.750 L 808.500 67.500 776.500 67.257 C 758.900 67.124, 743.914 67.390, 743.198 67.849 M 913.457 68.250 C 913.194 68.938, 913.095 88.400, 913.239 111.500 L 913.500 153.500 920.750 153.794 L 928 154.088 928 145.973 C 928 137.913, 928.028 137.826, 932.157 132.929 C 934.443 130.218, 936.580 128.008, 936.907 128.017 C 937.233 128.026, 941.550 133.875, 946.500 141.014 L 955.500 153.994 964.250 153.997 C 969.063 153.999, 973 153.741, 973 153.424 C 973 153.107, 971.051 150.295, 968.668 147.174 C 960.205 136.090, 948 118.917, 948 118.095 C 948 117.636, 953.201 111.576, 959.557 104.630 L 971.114 92 962.180 92 L 953.245 92 946.444 99.750 C 937.207 110.275, 929.732 118, 928.784 118 C 928.353 118, 928 106.525, 928 92.500 L 928 67 920.969 67 C 916.265 67, 913.778 67.414, 913.457 68.250 M 138.390 73.519 C 135.542 76.367, 135.324 79.944, 137.810 83.014 C 141.613 87.710, 149 84.430, 149 78.044 C 149 72.547, 142.244 69.665, 138.390 73.519 M 105.200 73.200 C 104.313 74.087, 104 83.467, 104 109.200 C 104 142.667, 104.077 144.077, 106 146 C 107.100 147.100, 108.787 147.986, 109.750 147.970 C 110.713 147.953, 117.350 144.359, 124.500 139.984 C 131.650 135.608, 139.525 130.898, 142 129.516 C 164.805 116.785, 168.871 113.421, 167.097 108.756 C 166.546 107.307, 165.062 105.571, 163.798 104.899 C 160.981 103.400, 122.149 78.914, 116.221 74.898 C 111.738 71.862, 107.232 71.168, 105.200 73.200 M 713 83.445 L 713 91.890 708.250 92.195 L 703.500 92.500 703.567 98.500 L 703.633 104.500 708.317 104.805 L 713 105.110 713 124.095 C 713 141.006, 713.215 143.501, 714.969 146.939 C 717.258 151.426, 721.823 154.515, 727.539 155.447 C 731.763 156.135, 739.549 154.851, 741.207 153.193 C 741.770 152.630, 741.882 149.905, 741.475 146.648 L 740.778 141.069 736.371 141.673 C 732.941 142.143, 731.524 141.879, 729.982 140.483 C 728.156 138.831, 728 137.368, 728 121.893 L 728 105.095 734.250 104.798 L 740.500 104.500 740.500 98.500 L 740.500 92.500 734.250 92.202 L 728 91.905 728 83.452 L 728 75 720.500 75 L 713 75 713 83.445 M 48.815 80.745 C 45.183 81.108, 45.121 81.188, 44.513 86.306 C 44.174 89.163, 44.032 101.175, 44.198 113 L 44.500 134.500 51.750 134.794 C 59.829 135.121, 60.178 134.755, 57.616 128.624 C 55.023 122.418, 53.887 115.083, 55.147 112.689 C 55.781 111.485, 56.783 110.186, 57.373 109.803 C 58.066 109.353, 57.625 108.230, 56.134 106.643 C 53.944 104.311, 53.882 103.870, 54.968 98.340 C 55.600 95.128, 57.021 90.319, 58.128 87.653 C 59.234 84.987, 59.926 82.249, 59.665 81.568 C 59.188 80.326, 55.672 80.059, 48.815 80.745 M 183 82.628 C 183 83.798, 183.632 86.273, 184.404 88.128 C 185.177 89.983, 186.362 94.323, 187.039 97.773 C 188.150 103.440, 188.096 104.236, 186.478 106.024 C 184.756 107.927, 184.758 108.135, 186.522 111.411 C 188.313 114.737, 188.308 115.006, 186.295 122.659 C 185.161 126.972, 183.903 131.512, 183.500 132.750 C 182.787 134.939, 182.956 135, 189.776 135 C 194.615 135, 196.941 134.596, 197.286 133.697 C 198.114 131.539, 198.035 87.771, 197.196 84 L 196.418 80.500 189.709 80.500 C 183.532 80.500, 183 80.669, 183 82.628 M 88 90 C 82.366 95.634, 90.102 104.854, 96.343 99.945 C 100.421 96.737, 99.931 91.579, 95.316 89.150 C 92.182 87.500, 90.278 87.722, 88 90 M 412.500 92.867 C 410.300 93.870, 407.085 95.885, 405.356 97.345 C 403.626 98.805, 401.939 100, 401.606 100 C 401.273 100, 401 98.200, 401 96 L 401 92 393.486 92 L 385.971 92 386.236 122.750 L 386.500 153.500 393.694 153.793 L 400.887 154.085 401.194 133.121 C 401.497 112.343, 401.522 112.132, 404 109.449 C 408.875 104.170, 417.172 102.486, 423.128 105.566 C 428.300 108.241, 429 111.633, 429 134.012 L 429 154.088 436.250 153.794 L 443.500 153.500 443.771 132.008 C 443.927 119.585, 443.594 108.360, 442.981 105.407 C 441.793 99.687, 437.620 94.595, 432.282 92.352 C 427.646 90.404, 417.314 90.673, 412.500 92.867 M 476.696 92.912 C 469.083 95.979, 463.522 101.195, 459.800 108.755 C 456.865 114.717, 456.508 116.346, 456.573 123.479 C 456.626 129.330, 457.211 132.765, 458.734 136.176 C 464.949 150.094, 481.189 158.143, 496.684 154.983 C 502.907 153.715, 513.549 148.619, 514.353 146.522 C 514.622 145.823, 513.113 143.563, 511 141.500 L 507.160 137.750 504.185 139.868 C 494.080 147.064, 476.814 143.531, 472.995 133.487 C 470.830 127.793, 469.958 128, 496.147 128 L 520.293 128 519.671 120.640 C 518.598 107.938, 513.296 99.241, 503.590 94.259 C 496.642 90.692, 483.801 90.049, 476.696 92.912 M 558.137 92.369 C 556.287 93.038, 553.025 95.055, 550.887 96.850 L 547 100.113 547 96.056 L 547 92 539.500 92 L 532 92 532 123 L 532 154 539.500 154 L 547 154 547 133.135 C 547 113.490, 547.122 112.114, 549.088 109.615 C 553.155 104.445, 559.902 102.631, 565.528 105.195 C 570.488 107.455, 571 110.051, 571 132.950 L 571 154 578.500 154 L 586 154 586.004 133.750 C 586.007 115.203, 586.177 113.222, 588.026 110.190 C 591.234 104.927, 599.532 102.463, 605.257 105.071 C 610.125 107.289, 610.478 109.016, 610.820 132.292 L 611.141 154.085 618.320 153.792 L 625.500 153.500 625.787 131.500 C 625.968 117.718, 625.659 107.819, 624.962 105 C 622.504 95.058, 615.335 90.427, 603.562 91.177 C 597.861 91.540, 596.260 92.129, 590.878 95.842 L 584.719 100.093 581.610 96.899 C 579.899 95.142, 577.052 93.096, 575.282 92.352 C 571.365 90.706, 562.709 90.715, 558.137 92.369 M 655.286 92.451 C 649.917 94.129, 642 98.745, 642 100.198 C 642 100.810, 643.202 102.929, 644.672 104.906 C 646.141 106.883, 647.426 108.623, 647.527 108.772 C 647.629 108.922, 650.297 107.685, 653.457 106.022 C 662.825 101.095, 674.555 102.383, 677.799 108.696 C 679.246 111.513, 680.108 118.816, 679.068 119.458 C 678.553 119.776, 676.190 119.016, 673.816 117.768 C 668.130 114.780, 654.425 114.582, 649 117.410 C 641.714 121.207, 638.661 125.412, 637.482 133.269 C 636.884 137.256, 637.190 138.867, 639.396 143.377 C 642.615 149.957, 647.582 153.621, 655.186 155.027 C 662.284 156.339, 668.692 154.996, 674.543 150.971 C 676.917 149.337, 679.117 148, 679.430 148 C 679.744 148, 680 149.350, 680 151 L 680 154 687 154 L 694 154 694 132.443 C 694 119.418, 693.541 109.064, 692.841 106.284 C 691.270 100.042, 685.721 94.589, 678.874 92.555 C 672.582 90.687, 661.093 90.636, 655.286 92.451 M 865.404 92.769 C 843.588 100.558, 837.045 128.075, 852.913 145.290 C 858.938 151.826, 867.441 155.403, 877.048 155.443 C 883.551 155.469, 885.493 155.032, 891.083 152.280 C 894.651 150.523, 898.662 147.924, 899.997 146.503 L 902.424 143.920 897.962 140.003 C 893.368 135.969, 891.579 135.254, 890.491 137.014 C 889.163 139.163, 881.883 142, 877.697 142 C 867.490 142, 860 134.090, 860 123.311 C 860 116.476, 861.761 112.295, 866.330 108.284 C 872.666 102.720, 881.461 102.625, 888.207 108.046 L 892.089 111.166 897.025 106.377 L 901.962 101.588 899.930 99.425 C 898.812 98.236, 895.558 95.987, 892.699 94.429 C 885.877 90.712, 873.305 89.948, 865.404 92.769 M 355 123 L 355 154 362.500 154 L 370 154 370 123 L 370 92 362.500 92 L 355 92 355 123 M 817 123 L 817 154 824.500 154 L 832 154 832 123 L 832 92 824.500 92 L 817 92 817 123 M 482.684 103.396 C 476.534 105.674, 472 111.002, 472 115.950 C 472 117.934, 472.533 118, 488.500 118 L 505 118 505 115.648 C 505 112.838, 501.476 107.400, 498 104.848 C 494.580 102.336, 487.386 101.654, 482.684 103.396 M 88 112 C 85.114 114.886, 85.411 119.392, 88.657 121.945 C 93.066 125.413, 99 122.233, 99 116.402 C 99 110.655, 92.104 107.896, 88 112 M 659.643 125.972 C 650.993 128.733, 649.626 138.362, 657.225 142.996 C 661.108 145.363, 668.816 145.663, 672.802 143.602 C 677.600 141.121, 679.155 138.612, 678.812 133.902 C 678.550 130.284, 677.998 129.306, 675.347 127.764 C 671.619 125.594, 663.668 124.688, 659.643 125.972 M 138.203 134.256 C 137.630 134.946, 136.857 136.724, 136.485 138.205 C 135.956 140.310, 136.366 141.457, 138.359 143.450 C 139.761 144.852, 141.830 146, 142.955 146 C 148.029 146, 150.968 138.091, 147.171 134.655 C 145.014 132.703, 139.688 132.466, 138.203 134.256 M 65.544 144.344 C 62.808 146.344, 64.150 149.633, 70.300 156 C 86.047 172.303, 109.833 180.528, 131.066 177.012 C 138.946 175.707, 151.798 171.201, 157.797 167.640 C 162.599 164.790, 178.004 149.754, 177.985 147.936 C 177.948 144.489, 176.111 143.544, 168.720 143.171 L 161.340 142.799 156.062 147.939 C 139.366 164.202, 112.729 166.319, 92.151 153.019 C 88.865 150.895, 85.152 147.772, 83.900 146.079 C 81.729 143.142, 81.296 143, 74.503 143 C 70.118 143, 66.676 143.517, 65.544 144.344" stroke="none" fill="black" fill-rule="evenodd"/>
</svg>